<?xml version="1.0" encoding="UTF-8" standalone="no"?>
<!-- Created with Digital by H.Neemann -->
<!-- created: Sun Sep 20 15:18:28 EDT 2026 -->

<svg
   xmlns:svg="http://www.w3.org/2000/svg"
   xmlns="http://www.w3.org/2000/svg"
   width="42.75mm"
   height="41.25mm"
   viewBox="739 709 285 275">
<g stroke-linecap="square">
<path d="M 910,980 L 930,980" stroke="#000000" stroke-width="6.0" fill="none"/>
<path d="M 928,780 L 934,780" stroke="#000000" stroke-width="2.0" fill="none"/>
<path d="M 915,880 L 920,880" stroke="#000000" stroke-width="2.0" fill="none"/>
<path d="M 868,780 L 874,780" stroke="#000000" stroke-width="2.0" fill="none"/>
<path d="M 915,940 L 920,940" stroke="#000000" stroke-width="2.0" fill="none"/>
<path d="M 928,775 L 928,785" stroke="#000000" stroke-width="4.0" fill="none"/>
<path d="M 921,760 L 921,800" stroke="#000000" stroke-width="4.0" fill="none"/>
<path d="M 908,875 L 908,885" stroke="#000000" stroke-width="4.0" fill="none"/>
<path d="M 901,860 L 901,900" stroke="#000000" stroke-width="4.0" fill="none"/>
<path d="M 868,775 L 868,785" stroke="#000000" stroke-width="4.0" fill="none"/>
<path d="M 861,760 L 861,800" stroke="#000000" stroke-width="4.0" fill="none"/>
<path d="M 908,935 L 908,945" stroke="#000000" stroke-width="4.0" fill="none"/>
<path d="M 901,920 L 901,960" stroke="#000000" stroke-width="4.0" fill="none"/>
<path d="M 900,714 L 900,720" stroke="#000000" stroke-width="4.0" fill="none"/>
<path d="M 800,880 L 820,880 L 900,880 L 900,900" stroke="#0000b2" stroke-width="4.0" fill="none"/>
<path d="M 860,940 L 860,820 L 900,820 L 900,760 L 920,760" stroke="#0000b2" stroke-width="4.0" fill="none"/>
<path d="M 880,760 L 880,740 L 900,740 L 940,740 L 940,760" stroke="#0000b2" stroke-width="4.0" fill="none"/>
<path d="M 820,880 L 820,760 L 860,760" stroke="#0000b2" stroke-width="4.0" fill="none"/>
<path d="M 880,800 L 880,840 L 920,840 L 940,840 L 960,840" stroke="#0000b2" stroke-width="4.0" fill="none"/>
<path d="M 800,940 L 860,940 L 900,940 L 900,960" stroke="#0000b2" stroke-width="4.0" fill="none"/>
<path d="M 900,720 L 900,740" stroke="#0000b2" stroke-width="4.0" fill="none"/>
<path d="M 920,840 L 920,860" stroke="#0000b2" stroke-width="4.0" fill="none"/>
<path d="M 920,900 L 920,920" stroke="#0000b2" stroke-width="4.0" fill="none"/>
<path d="M 920,960 L 920,980" stroke="#0000b2" stroke-width="4.0" fill="none"/>
<path d="M 940,800 L 940,840" stroke="#0000b2" stroke-width="4.0" fill="none"/>
<g>
<circle cx="820.0" cy="880.0" r="4.0" stroke="#0000b2" stroke-width="4.0" fill="#0000b2" />
<circle cx="900.0" cy="740.0" r="4.0" stroke="#0000b2" stroke-width="4.0" fill="#0000b2" />
<circle cx="920.0" cy="840.0" r="4.0" stroke="#0000b2" stroke-width="4.0" fill="#0000b2" />
<circle cx="940.0" cy="840.0" r="4.0" stroke="#0000b2" stroke-width="4.0" fill="#0000b2" />
<circle cx="860.0" cy="940.0" r="4.0" stroke="#0000b2" stroke-width="4.0" fill="#0000b2" />
</g>
<g>
<path d="M 940,760 L 928,760 L 928,765" stroke="#000000" stroke-width="4.0" fill="none"/>
<path d="M 940,800 L 928,800 L 928,795" stroke="#000000" stroke-width="4.0" fill="none"/>
<path d="M 939,780 L 934,778 L 934,782 Z" stroke="#000000" stroke-width="2.0" fill="#000000" fill-opacity="1.0"/>
<circle cx="920.0" cy="760.0" r="2.0" stroke="#0000b2" stroke-width="4.0" fill="#0000b2" />
<circle cx="940.0" cy="760.0" r="2.0" stroke="#b20000" stroke-width="4.0" fill="#b20000" />
<circle cx="940.0" cy="800.0" r="2.0" stroke="#b20000" stroke-width="4.0" fill="#b20000" />
</g>
<g>
<path d="M 920,860 L 908,860 L 908,865" stroke="#000000" stroke-width="4.0" fill="none"/>
<path d="M 920,900 L 908,900 L 908,895" stroke="#000000" stroke-width="4.0" fill="none"/>
<path d="M 912,880 L 917,878 L 917,882 Z" stroke="#000000" stroke-width="2.0" fill="#000000" fill-opacity="1.0"/>
<circle cx="900.0" cy="900.0" r="2.0" stroke="#0000b2" stroke-width="4.0" fill="#0000b2" />
<circle cx="920.0" cy="860.0" r="2.0" stroke="#b20000" stroke-width="4.0" fill="#b20000" />
<circle cx="920.0" cy="900.0" r="2.0" stroke="#b20000" stroke-width="4.0" fill="#b20000" />
</g>
<g>
<path d="M 769,865 L 799,865 L 799,895 L 769,895 Z" stroke="#000000" stroke-width="4.0" fill="none"/>
<circle cx="784.0" cy="880.0" r="9.0" stroke="#000000" stroke-width="4.0" fill="none" />
<text text-anchor="end" x="755.0" y="889.0" fill="#000000" style="font-size:24px"><tspan style="font-style:italic;">A</tspan></text>
<circle cx="800.0" cy="880.0" r="2.0" stroke="#b20000" stroke-width="4.0" fill="#b20000" />
</g>
<g>
<circle cx="976.0" cy="840.0" r="9.0" stroke="#000000" stroke-width="4.0" fill="none" />
<circle cx="976.0" cy="840.0" r="15.0" stroke="#000000" stroke-width="4.0" fill="none" />
<text text-anchor="start" x="1005.0" y="849.0" fill="#000000" style="font-size:24px"><tspan style="font-style:italic;">O</tspan></text>
<circle cx="960.0" cy="840.0" r="2.0" stroke="#0000b2" stroke-width="4.0" fill="#0000b2" />
</g>
<g>
<path d="M 769,925 L 799,925 L 799,955 L 769,955 Z" stroke="#000000" stroke-width="4.0" fill="none"/>
<circle cx="784.0" cy="940.0" r="9.0" stroke="#000000" stroke-width="4.0" fill="none" />
<text text-anchor="end" x="755.0" y="949.0" fill="#000000" style="font-size:24px"><tspan style="font-style:italic;">B</tspan></text>
<circle cx="800.0" cy="940.0" r="2.0" stroke="#b20000" stroke-width="4.0" fill="#b20000" />
</g>
<g>
<path d="M 880,760 L 868,760 L 868,765" stroke="#000000" stroke-width="4.0" fill="none"/>
<path d="M 880,800 L 868,800 L 868,795" stroke="#000000" stroke-width="4.0" fill="none"/>
<path d="M 879,780 L 874,778 L 874,782 Z" stroke="#000000" stroke-width="2.0" fill="#000000" fill-opacity="1.0"/>
<circle cx="860.0" cy="760.0" r="2.0" stroke="#0000b2" stroke-width="4.0" fill="#0000b2" />
<circle cx="880.0" cy="760.0" r="2.0" stroke="#b20000" stroke-width="4.0" fill="#b20000" />
<circle cx="880.0" cy="800.0" r="2.0" stroke="#b20000" stroke-width="4.0" fill="#b20000" />
</g>
<g>
<path d="M 920,920 L 908,920 L 908,925" stroke="#000000" stroke-width="4.0" fill="none"/>
<path d="M 920,960 L 908,960 L 908,955" stroke="#000000" stroke-width="4.0" fill="none"/>
<path d="M 912,940 L 917,938 L 917,942 Z" stroke="#000000" stroke-width="2.0" fill="#000000" fill-opacity="1.0"/>
<circle cx="900.0" cy="960.0" r="2.0" stroke="#0000b2" stroke-width="4.0" fill="#0000b2" />
<circle cx="920.0" cy="920.0" r="2.0" stroke="#b20000" stroke-width="4.0" fill="#b20000" />
<circle cx="920.0" cy="960.0" r="2.0" stroke="#b20000" stroke-width="4.0" fill="#b20000" />
</g>
<g>
<path d="M 890,724 L 900,711 L 910,724" stroke="#000000" stroke-width="4.0" fill="none"/>
<circle cx="900.0" cy="720.0" r="2.0" stroke="#b20000" stroke-width="4.0" fill="#b20000" />
</g>
<g>
<circle cx="920.0" cy="980.0" r="2.0" stroke="#b20000" stroke-width="4.0" fill="#b20000" />
</g>
</g>
</svg>